<svg xmlns="http://www.w3.org/2000/svg" xmlns:xlink="http://www.w3.org/1999/xlink" contentStyleType="text/css" data-diagram-type="DESCRIPTION" height="866px" preserveAspectRatio="none" style="width:1313px;height:866px;background:#FAFAFA;" version="1.1" viewBox="0 0 1313 866" width="1313px" zoomAndPan="magnify"><?plantuml $version$?><defs/><g><rect fill="#FAFAFA" height="866" style="stroke:none;stroke-width:1;" width="1313" x="0" y="0"/><g class="title" data-source-line="7"><text fill="#000000" font-family="DejaVu Sans" font-size="22" font-weight="700" lengthAdjust="spacing" textLength="933.2813" x="188.8594" y="35.4209">One JavaScript object graph, three physical backends, four project engines</text></g><!--cluster Project facades--><g class="cluster" data-qualified-name="Project facades" data-source-line="11" id="ent0002"><path d="M483.5,180.8994 L606.5762,180.8994 A3.75,3.75 0 0 1 609.0762,183.3994 L616.0762,203.1963 L1295.5,203.1963 A2.5,2.5 0 0 1 1298,205.6963 L1298,284.6994 A2.5,2.5 0 0 1 1295.5,287.1994 L483.5,287.1994 A2.5,2.5 0 0 1 481,284.6994 L481,183.3994 A2.5,2.5 0 0 1 483.5,180.8994" fill="#E8EAF6" style="stroke:#000000;stroke-width:1;"/><line style="stroke:#000000;stroke-width:1;" x1="481" x2="616.0762" y1="203.1963" y2="203.1963"/><text fill="#000000" font-family="DejaVu Sans" font-size="14" font-weight="700" lengthAdjust="spacing" textLength="122.0762" x="485" y="195.8945">Project facades</text></g><!--cluster @vinary-tree/vinary-tree 4.0.0-rc.1--><g class="cluster" data-qualified-name=".vinary-tree.vinary-tree 4.0.0-rc.1" data-source-line="18" id="ent0007"><path d="M13.5,320.1994 L289.9541,320.1994 A3.75,3.75 0 0 1 292.4541,322.6994 L299.4541,342.4963 L1122.5,342.4963 A2.5,2.5 0 0 1 1125,344.9963 L1125,762.1794 A2.5,2.5 0 0 1 1122.5,764.6794 L13.5,764.6794 A2.5,2.5 0 0 1 11,762.1794 L11,322.6994 A2.5,2.5 0 0 1 13.5,320.1994" fill="#E0F2F1" style="stroke:#000000;stroke-width:1;"/><line style="stroke:#000000;stroke-width:1;" x1="11" x2="299.4541" y1="342.4963" y2="342.4963"/><text fill="#000000" font-family="DejaVu Sans" font-size="14" font-weight="700" lengthAdjust="spacing" textLength="275.4541" x="15" y="335.1945">@vinary-tree/vinary-tree 4.0.0-rc.1</text></g><!--cluster One selected backend instance--><g class="cluster" data-qualified-name=".vinary-tree.vinary-tree 4.0.0-rc.1.One selected backend instance" data-source-line="23" id="ent0012"><path d="M37.5,489.7894 L284.6758,489.7894 A3.75,3.75 0 0 1 287.1758,492.2894 L294.1758,512.0863 L698.5,512.0863 A2.5,2.5 0 0 1 701,514.5863 L701,738.1794 A2.5,2.5 0 0 1 698.5,740.6794 L37.5,740.6794 A2.5,2.5 0 0 1 35,738.1794 L35,492.2894 A2.5,2.5 0 0 1 37.5,489.7894" fill="#E8F5E9" style="stroke:#000000;stroke-width:1;"/><line style="stroke:#000000;stroke-width:1;" x1="35" x2="294.1758" y1="512.0863" y2="512.0863"/><text fill="#000000" font-family="DejaVu Sans" font-size="14" font-weight="700" lengthAdjust="spacing" textLength="246.1758" x="39" y="504.7845">One selected backend instance</text></g><!--entity dictFacade--><g class="entity" data-qualified-name="Project facades.dictFacade" data-source-line="12" id="ent0003"><rect fill="#C5CAE9" height="36.2969" rx="2.5" ry="2.5" style="stroke:#000000;stroke-width:1;" width="210.1826" x="496.91" y="234.8994"/><text fill="#000000" font-family="DejaVu Sans" font-size="14" lengthAdjust="spacing" textLength="190.1826" x="506.91" y="257.8945">@vinary-tree/libdictenstein</text></g><!--entity levFacade--><g class="entity" data-qualified-name="Project facades.levFacade" data-source-line="13" id="ent0004"><rect fill="#C5CAE9" height="36.2969" rx="2.5" ry="2.5" style="stroke:#000000;stroke-width:1;" width="117.9727" x="742.01" y="234.8994"/><text fill="#000000" font-family="DejaVu Sans" font-size="14" lengthAdjust="spacing" textLength="97.9727" x="752.01" y="257.8945">liblevenshtein</text></g><!--entity llingFacade--><g class="entity" data-qualified-name="Project facades.llingFacade" data-source-line="14" id="ent0005"><rect fill="#C5CAE9" height="36.2969" rx="2.5" ry="2.5" style="stroke:#000000;stroke-width:1;" width="184.5068" x="894.75" y="234.8994"/><text fill="#000000" font-family="DejaVu Sans" font-size="14" lengthAdjust="spacing" textLength="164.5068" x="904.75" y="257.8945">@vinary-tree/lling-llang</text></g><!--entity dualFacade--><g class="entity" data-qualified-name="Project facades.dualFacade" data-source-line="15" id="ent0006"><rect fill="#C5CAE9" height="36.2969" rx="2.5" ry="2.5" style="stroke:#000000;stroke-width:1;" width="167.6904" x="1114.15" y="234.8994"/><text fill="#000000" font-family="DejaVu Sans" font-size="14" lengthAdjust="spacing" textLength="147.6904" x="1124.15" y="257.8945">@vinary-tree/duallity</text></g><!--entity identity--><g class="entity" data-qualified-name=".vinary-tree.vinary-tree 4.0.0-rc.1.identity" data-source-line="19" id="ent0008"><rect fill="#80CBC4" height="52.5938" rx="2.5" ry="2.5" style="stroke:#000000;stroke-width:1;" width="223.6357" x="782.18" y="374.1994"/><text fill="#000000" font-family="DejaVu Sans" font-size="14" lengthAdjust="spacing" textLength="116.9697" x="792.18" y="397.1945">Runtime identity</text><text fill="#000000" font-family="DejaVu Sans" font-size="14" lengthAdjust="spacing" textLength="203.6357" x="792.18" y="413.4914">(resource compatibility gate)</text></g><!--entity napi--><g class="entity" data-qualified-name=".vinary-tree.vinary-tree 4.0.0-rc.1.napi" data-source-line="20" id="ent0009"><rect fill="#B2DFDB" height="36.2969" rx="2.5" ry="2.5" style="stroke:#000000;stroke-width:1;" width="98.6611" x="716.67" y="543.7894"/><text fill="#000000" font-family="DejaVu Sans" font-size="14" lengthAdjust="spacing" textLength="78.6611" x="726.67" y="566.7845">Node N-API</text></g><!--entity wasm--><g class="entity" data-qualified-name=".vinary-tree.vinary-tree 4.0.0-rc.1.wasm" data-source-line="21" id="ent0010"><rect fill="#B2DFDB" height="36.2969" rx="2.5" ry="2.5" style="stroke:#000000;stroke-width:1;" width="125.875" x="850.06" y="543.7894"/><text fill="#000000" font-family="DejaVu Sans" font-size="14" lengthAdjust="spacing" textLength="105.875" x="860.06" y="566.7845">Browser WASM</text></g><!--entity wasi--><g class="entity" data-qualified-name=".vinary-tree.vinary-tree 4.0.0-rc.1.wasi" data-source-line="22" id="ent0011"><rect fill="#B2DFDB" height="36.2969" rx="2.5" ry="2.5" style="stroke:#000000;stroke-width:1;" width="97.4238" x="1011.29" y="543.7894"/><text fill="#000000" font-family="DejaVu Sans" font-size="14" lengthAdjust="spacing" textLength="77.4238" x="1021.29" y="566.7845">Node WASI</text></g><!--entity dict--><g class="entity" data-qualified-name=".vinary-tree.vinary-tree 4.0.0-rc.1.One selected backend instance.dict" data-source-line="24" id="ent0013"><rect fill="#C8E6C9" height="36.2969" rx="2.5" ry="2.5" style="stroke:#000000;stroke-width:1;" width="114.2744" x="570.86" y="680.2394"/><text fill="#000000" font-family="DejaVu Sans" font-size="14" lengthAdjust="spacing" textLength="94.2744" x="580.86" y="703.2345">libdictenstein</text></g><!--entity lev--><g class="entity" data-qualified-name=".vinary-tree.vinary-tree 4.0.0-rc.1.One selected backend instance.lev" data-source-line="25" id="ent0014"><rect fill="#C8E6C9" height="36.2969" rx="2.5" ry="2.5" style="stroke:#000000;stroke-width:1;" width="117.9727" x="418.01" y="680.2394"/><text fill="#000000" font-family="DejaVu Sans" font-size="14" lengthAdjust="spacing" textLength="97.9727" x="428.01" y="703.2345">liblevenshtein</text></g><!--entity lling--><g class="entity" data-qualified-name=".vinary-tree.vinary-tree 4.0.0-rc.1.One selected backend instance.lling" data-source-line="26" id="ent0015"><rect fill="#C8E6C9" height="36.2969" rx="2.5" ry="2.5" style="stroke:#000000;stroke-width:1;" width="88.5986" x="50.7" y="543.7894"/><text fill="#000000" font-family="DejaVu Sans" font-size="14" lengthAdjust="spacing" textLength="68.5986" x="60.7" y="566.7845">lling-llang</text></g><!--entity dual--><g class="entity" data-qualified-name=".vinary-tree.vinary-tree 4.0.0-rc.1.One selected backend instance.dual" data-source-line="27" id="ent0016"><rect fill="#C8E6C9" height="36.2969" rx="2.5" ry="2.5" style="stroke:#000000;stroke-width:1;" width="71.7822" x="262.11" y="543.7894"/><text fill="#000000" font-family="DejaVu Sans" font-size="14" lengthAdjust="spacing" textLength="51.7822" x="272.11" y="566.7845">duallity</text></g><!--entity interop--><g class="entity" data-qualified-name=".vinary-tree.vinary-tree 4.0.0-rc.1.One selected backend instance.interop" data-source-line="28" id="ent0017"><rect fill="#FFF59D" height="52.5938" rx="2.5" ry="2.5" style="stroke:#000000;stroke-width:1;" width="152.3164" x="94.84" y="672.0894"/><text fill="#000000" font-family="DejaVu Sans" font-size="14" lengthAdjust="spacing" textLength="132.3164" x="104.84" y="695.0845">vinary-tree-interop</text><text fill="#000000" font-family="DejaVu Sans" font-size="14" lengthAdjust="spacing" textLength="131.6123" x="104.84" y="711.3814">retained resources</text></g><!--entity app--><g class="entity" data-qualified-name="app" data-source-line="9" id="ent0001"><ellipse cx="893.0018" cy="65.6094" fill="#FFF8E1" rx="8" ry="8" style="stroke:#000000;stroke-width:1;"/><path d="M893.0018,73.6094 L893.0018,100.6094 M880.0018,81.6094 L906.0018,81.6094 M893.0018,100.6094 L880.0018,115.6094 M893.0018,100.6094 L906.0018,115.6094" fill="none" style="stroke:#000000;stroke-width:1;"/><text fill="#000000" font-family="DejaVu Sans" font-size="14" lengthAdjust="spacing" textLength="78.2236" x="853.89" y="130.6045">Application</text></g><g class="entity" data-qualified-name="GMN37" data-source-line="52" id="ent0038"><path d="M32.72,811.6794 L32.72,851.945 A0,0 0 0 0 32.72,851.945 L309.2703,851.945 A0,0 0 0 0 309.2703,851.945 L309.2703,821.6794 L299.2703,811.6794 L175,811.6794 L171,725.0394 L167,811.6794 L32.72,811.6794 A0,0 0 0 0 32.72,811.6794" fill="#FFFDE7" style="stroke:#000000;stroke-width:1;"/><path d="M299.2703,811.6794 L299.2703,821.6794 L309.2703,821.6794 L299.2703,811.6794" fill="#FFFDE7" style="stroke:#000000;stroke-width:1;"/><text fill="#000000" font-family="DejaVu Sans" font-size="13" lengthAdjust="spacing" textLength="157.8789" x="38.72" y="828.7463">O(1) in-process handoff:</text><text fill="#000000" font-family="DejaVu Sans" font-size="13" lengthAdjust="spacing" textLength="255.5503" x="38.72" y="843.8791">retain capability, do not serialize graph</text></g><!--link app to dictFacade--><g class="link" data-entity-1="ent0001" data-entity-2="ent0003" data-link-type="dependency" data-source-line="32" id="lnk18"><path d="M853.52,112.3594 C818.97,126.8994 767.77,149.5394 725,172.8994 C689.79,192.1294 655.3075,214.9427 630.9075,231.7527" fill="none" id="app-to-dictFacade" style="stroke:#37474F;stroke-width:1;"/><polygon fill="#37474F" points="626.79,234.5894,636.4707,232.7774,630.9075,231.7527,631.9321,226.1894,626.79,234.5894" style="stroke:#37474F;stroke-width:1;stroke-linejoin:miter;stroke-miterlimit:10;"/></g><!--link app to levFacade--><g class="link" data-entity-1="ent0001" data-entity-2="ent0004" data-link-type="dependency" data-source-line="33" id="lnk19"><path d="M870.49,134.3694 C851.66,166.2594 828.1923,206.0039 813.9323,230.1539" fill="none" id="app-to-levFacade" style="stroke:#37474F;stroke-width:1;"/><polygon fill="#37474F" points="811.39,234.4594,819.4104,228.7434,813.9323,230.1539,812.5217,224.6758,811.39,234.4594" style="stroke:#37474F;stroke-width:1;stroke-linejoin:miter;stroke-miterlimit:10;"/></g><!--link app to llingFacade--><g class="link" data-entity-1="ent0001" data-entity-2="ent0005" data-link-type="dependency" data-source-line="34" id="lnk20"><path d="M915.99,134.3694 C935.24,166.2594 959.2271,206.0282 973.7971,230.1782" fill="none" id="app-to-llingFacade" style="stroke:#37474F;stroke-width:1;"/><polygon fill="#37474F" points="976.38,234.4594,975.1557,224.6869,973.7971,230.1782,968.3058,228.8195,976.38,234.4594" style="stroke:#37474F;stroke-width:1;stroke-linejoin:miter;stroke-miterlimit:10;"/></g><!--link app to dualFacade--><g class="link" data-entity-1="ent0001" data-entity-2="ent0006" data-link-type="dependency" data-source-line="35" id="lnk21"><path d="M932.53,107.1694 C974.82,119.7394 1043.08,142.5894 1097,172.8994 C1128.27,190.4794 1156.436,213.9018 1175.796,231.3518" fill="none" id="app-to-dualFacade" style="stroke:#37474F;stroke-width:1;"/><polygon fill="#37474F" points="1179.51,234.6994,1175.5029,225.7025,1175.796,231.3518,1170.1468,231.6449,1179.51,234.6994" style="stroke:#37474F;stroke-width:1;stroke-linejoin:miter;stroke-miterlimit:10;"/></g><!--link dictFacade to identity--><g class="link" data-entity-1="ent0003" data-entity-2="ent0008" data-link-type="dependency" data-source-line="36" id="lnk22"><path d="M637.22,271.5994 C688.34,297.0594 778.9345,342.18 837.9545,371.58" fill="none" id="dictFacade-to-identity" style="stroke:#37474F;stroke-width:1;"/><polygon fill="#37474F" points="842.43,373.8094,836.1577,366.2161,837.9545,371.58,832.5906,373.3768,842.43,373.8094" style="stroke:#37474F;stroke-width:1;stroke-linejoin:miter;stroke-miterlimit:10;"/></g><!--link levFacade to identity--><g class="link" data-entity-1="ent0004" data-entity-2="ent0008" data-link-type="dependency" data-source-line="37" id="lnk23"><path d="M812.22,271.5994 C828.5,297.0594 856.0874,340.1963 874.8774,369.5963" fill="none" id="levFacade-to-identity" style="stroke:#37474F;stroke-width:1;"/><polygon fill="#37474F" points="877.57,373.8094,876.0937,364.0718,874.8774,369.5963,869.3528,368.38,877.57,373.8094" style="stroke:#37474F;stroke-width:1;stroke-linejoin:miter;stroke-miterlimit:10;"/></g><!--link llingFacade to identity--><g class="link" data-entity-1="ent0005" data-entity-2="ent0008" data-link-type="dependency" data-source-line="38" id="lnk24"><path d="M975.78,271.5994 C959.5,297.0594 931.9126,340.1963 913.1226,369.5963" fill="none" id="llingFacade-to-identity" style="stroke:#37474F;stroke-width:1;"/><polygon fill="#37474F" points="910.43,373.8094,918.6472,368.38,913.1226,369.5963,911.9063,364.0718,910.43,373.8094" style="stroke:#37474F;stroke-width:1;stroke-linejoin:miter;stroke-miterlimit:10;"/></g><!--link dualFacade to identity--><g class="link" data-entity-1="ent0006" data-entity-2="ent0008" data-link-type="dependency" data-source-line="39" id="lnk25"><path d="M1161.33,271.5994 C1108.11,297.0594 1013.6402,342.2512 952.2002,371.6512" fill="none" id="dualFacade-to-identity" style="stroke:#37474F;stroke-width:1;"/><polygon fill="#37474F" points="947.69,373.8094,957.535,373.5328,952.2002,371.6512,954.0818,366.3164,947.69,373.8094" style="stroke:#37474F;stroke-width:1;stroke-linejoin:miter;stroke-miterlimit:10;"/></g><!--link identity to napi--><g class="link" data-entity-1="ent0008" data-entity-2="ent0009" data-link-type="dependency" data-source-line="40" id="lnk26"><path d="M872.33,427.2594 C864.59,436.5294 855.86,447.0894 848,456.7894 C823.53,487.0194 798.6959,518.7796 782.5659,539.5596" fill="none" id="identity-to-napi" style="stroke:#37474F;stroke-width:1;"/><polygon fill="#37474F" points="779.5,543.5094,788.1784,538.8526,782.5659,539.5596,781.8588,533.9472,779.5,543.5094" style="stroke:#37474F;stroke-width:1;stroke-linejoin:miter;stroke-miterlimit:10;"/><text fill="#000000" font-family="DejaVu Sans" font-size="13" lengthAdjust="spacing" textLength="33.9282" x="849" y="469.8563">Node</text></g><!--link identity to wasm--><g class="link" data-entity-1="ent0008" data-entity-2="ent0010" data-link-type="dependency" data-source-line="41" id="lnk27"><path d="M892.32,427.0894 C891.79,436.4294 891.26,447.0894 891,456.7894 C890.8,464.3494 890.07,466.2994 891,473.7894 C894.06,498.4194 900.3221,521.2959 905.7521,538.7159" fill="none" id="identity-to-wasm" style="stroke:#37474F;stroke-width:1;"/><polygon fill="#37474F" points="907.24,543.4894,908.3805,533.7068,905.7521,538.7159,900.7429,536.0875,907.24,543.4894" style="stroke:#37474F;stroke-width:1;stroke-linejoin:miter;stroke-miterlimit:10;"/><text fill="#000000" font-family="DejaVu Sans" font-size="13" lengthAdjust="spacing" textLength="52.2983" x="892" y="469.8563">browser</text></g><!--link identity to wasi--><g class="link" data-entity-1="ent0008" data-entity-2="ent0011" data-link-type="dependency" data-source-line="42" id="lnk28"><path d="M928.78,427.1394 C948.4,442.2094 972.92,462.1294 993,481.7894 C1013.2,501.5694 1030.7475,522.9148 1043.6775,539.5148" fill="none" id="identity-to-wasi" style="stroke:#37474F;stroke-width:1;"/><polygon fill="#37474F" points="1046.75,543.4594,1044.3752,533.9011,1043.6775,539.5148,1038.0638,538.8171,1046.75,543.4594" style="stroke:#37474F;stroke-width:1;stroke-linejoin:miter;stroke-miterlimit:10;"/><text fill="#000000" font-family="DejaVu Sans" font-size="13" lengthAdjust="spacing" textLength="119.8818" x="983.98" y="469.8563">Node + filesystem</text></g><!--link napi to dict--><g class="link" data-entity-1="ent0009" data-entity-2="ent0013" data-link-type="dependency" data-source-line="43" id="lnk29"><path d="M747.96,580.5194 C721.51,606.2794 676.0813,650.5502 649.6313,676.3202" fill="none" id="napi-to-dict" style="stroke:#37474F;stroke-width:1;"/><polygon fill="#37474F" points="646.05,679.8094,655.2876,676.3938,649.6313,676.3202,649.7049,670.6638,646.05,679.8094" style="stroke:#37474F;stroke-width:1;stroke-linejoin:miter;stroke-miterlimit:10;"/></g><!--link wasm to dict--><g class="link" data-entity-1="ent0010" data-entity-2="ent0013" data-link-type="dependency" data-source-line="44" id="lnk30"><path d="M875.74,580.5194 C821.12,606.2794 724.412,651.9059 669.792,677.6759" fill="none" id="wasm-to-dict" style="stroke:#37474F;stroke-width:1;"/><polygon fill="#37474F" points="665.27,679.8094,675.1163,679.5867,669.792,677.6759,671.7028,672.3515,665.27,679.8094" style="stroke:#37474F;stroke-width:1;stroke-linejoin:miter;stroke-miterlimit:10;"/></g><!--link wasi to dict--><g class="link" data-entity-1="ent0011" data-entity-2="ent0013" data-link-type="dependency" data-source-line="45" id="lnk31"><path d="M1010.86,578.2294 C930.15,603.3494 774.7141,651.7235 689.3741,678.2835" fill="none" id="wasi-to-dict" style="stroke:#37474F;stroke-width:1;"/><polygon fill="#37474F" points="684.6,679.7694,694.3821,680.9142,689.3741,678.2835,692.0048,673.2756,684.6,679.7694" style="stroke:#37474F;stroke-width:1;stroke-linejoin:miter;stroke-miterlimit:10;"/></g><!--link dict to interop--><g class="link" data-entity-1="ent0013" data-entity-2="ent0017" data-link-type="dependency" data-source-line="46" id="lnk32"><path d="M620.13,680.0494 C611.13,661.6794 594.47,634.4894 570.5,622.5894 C557.46,616.1194 453.92,620.5894 439.5,622.5894 C372.21,631.9094 302.8006,652.1697 249.5106,670.0397" fill="none" id="dict-to-interop" style="stroke:#37474F;stroke-width:1;"/><polygon fill="#37474F" points="244.77,671.6294,254.5748,672.5604,249.5106,670.0397,252.0313,664.9755,244.77,671.6294" style="stroke:#37474F;stroke-width:1;stroke-linejoin:miter;stroke-miterlimit:10;"/><text fill="#000000" font-family="DejaVu Sans" font-size="13" lengthAdjust="spacing" textLength="129.0098" x="440.5" y="630.6563">produces dictionary</text></g><!--reverse link interop to lev--><g class="link" data-entity-1="ent0017" data-entity-2="ent0014" data-link-type="dependency" data-source-line="47" id="lnk34"><path d="M252.43,698.3894 C305.18,698.3894 369.3,698.3894 417.86,698.3894" fill="none" id="interop-backto-lev" style="stroke:#37474F;stroke-width:1;"/><polygon fill="#37474F" points="247.43,698.3894,256.43,702.3894,252.43,698.3894,256.43,694.3894,247.43,698.3894" style="stroke:#37474F;stroke-width:1;stroke-linejoin:miter;stroke-miterlimit:10;"/><text fill="#000000" font-family="DejaVu Sans" font-size="13" lengthAdjust="spacing" textLength="134.8369" x="265.59" y="691.4563">consumes dictionary</text></g><!--link dual to interop--><g class="link" data-entity-1="ent0016" data-entity-2="ent0017" data-link-type="dependency" data-source-line="48" id="lnk35"><path d="M292.58,580.3094 C286.54,597.5194 275.41,623.8894 259,642.0894 C248.61,653.6094 239.5089,660.9876 226.3689,669.2076" fill="none" id="dual-to-interop" style="stroke:#37474F;stroke-width:1;"/><polygon fill="#37474F" points="222.13,671.8594,231.8814,670.4774,226.3689,669.2076,227.6386,663.6951,222.13,671.8594" style="stroke:#37474F;stroke-width:1;stroke-linejoin:miter;stroke-miterlimit:10;"/><text fill="#000000" font-family="DejaVu Sans" font-size="13" lengthAdjust="spacing" textLength="134.8369" x="280.01" y="623.1563">consumes dictionary</text><text fill="#000000" font-family="DejaVu Sans" font-size="13" lengthAdjust="spacing" textLength="100.6167" x="297.1201" y="638.2891">produces WFST</text></g><!--link lling to interop--><g class="link" data-entity-1="ent0015" data-entity-2="ent0017" data-link-type="dependency" data-source-line="49" id="lnk36"><path d="M86.4,580.4094 C79.44,597.2294 72.38,622.8694 83,642.0894 C89.63,654.0894 95.9478,661.0243 107.3678,668.8043" fill="none" id="lling-to-interop" style="stroke:#37474F;stroke-width:1;"/><polygon fill="#37474F" points="111.5,671.6194,106.3141,663.2464,107.3678,668.8043,101.8099,669.8579,111.5,671.6194" style="stroke:#37474F;stroke-width:1;stroke-linejoin:miter;stroke-miterlimit:10;"/><text fill="#000000" font-family="DejaVu Sans" font-size="13" lengthAdjust="spacing" textLength="170.7837" x="84" y="630.6563">produces/consumes WFST</text></g><?plantuml-src ZLHDKzim4BtxLsoJ2qmn11eWoQ7JV7c6pXIOfbCkN1HxRGiKoICfC6c7_zwLZ1qxXBRZYwLzxscr-rOVR8uhX48mBWFpo6N1D5l1aiMFcLPhcKoLK1gwqTXz3OJ9MQAUkSmWPS9W8nAhLQ4aIhkm6u6WCRPCPg896Mkjdb-LFrtsB_jH8vXWojR2HahQQqQvpV21_Lp3WaaJM6v9yaOYV6LFR15hNbXGomSw0pBDYlm8RAwHBfHl38-Py3T1cPWZIDLQGw6L1wFCk4GJ12osb4LdN1I2y9OhsG5cW1K5NJgA1lFJ82X8WsK8dTjNTifYbg3fG7S-c8-Z2_WTmFRUqFdon2NJcz1IAYU2BnCUMvJ68Y_LtJho6j2Tda_7ys6RJnI1JyJ8Qmgj_yPedoYeBw4GLFQIwzR_pKxMZ0XsKsPAYntcIwCWBMBZ7_h7lUDUgEFZKrUaNdGMdUuMwVjQMaxzvGajwRnxUQ3HK9DYz31gnfAxH21Z5WzzEXKMkeFUT3BjjnMl5QLv7OvlhpnOie93Tt8sYsQJDd12zZEeuMwy-EQXpyoizaEz9k6kAbnJigw3SwH1GTx0fB8SSEeuap5wcqJdyw6lm6wZztc3QZsONqo7U-1xVF4kUfyDtWE_wVfxm4QNGoujQbNSIusM7X2wUzL1KxQhZFj9EX_EIEh5sSSDLnX-Ren1lLNRVBkpDU-MMBioQ8oIYrG62RRpqjvkZ48hq31wQxzsdDlrZXg1yqGxuFqpWcNfgpUnYWGV8UK2pORQlGgyMbM7m4iqLusOzqIeUPPRbzjhLKVkDKlML6oFegUB6kCk3g70j8sCbJJhLHlfknp-2tOlwrFkeiMFie8xj0fnKlCzD93A8YoLjMe5ActPOJQ_93lS79mUqdP80aGta3EPg3GTKQYq5CIiOEKpS0I90bAaGTES2VuBooS_SBFcJle3?></g></svg>